<svg width="514" height="514" viewBox="0 0 514 514" fill="none" xmlns="http://www.w3.org/2000/svg">
<path d="M336.168 61.5452C293.451 44.2078 246.229 41.3506 201.733 53.4112C157.238 65.4718 117.923 91.7853 89.8079 128.321C61.6938 164.858 46.3309 209.603 46.0725 255.703C45.814 301.803 60.6741 346.718 88.3768 383.567C116.08 420.416 155.098 447.169 199.455 459.728C243.813 472.287 291.064 469.959 333.973 453.102C376.881 436.244 413.08 405.787 437.028 366.394C460.975 327 471.349 280.843 466.562 234.99L458.258 235.858C462.856 279.893 452.893 324.223 429.894 362.057C406.896 399.89 372.129 429.142 330.919 445.331C289.71 461.522 244.33 463.756 201.73 451.696C159.129 439.634 121.655 413.94 95.0498 378.55C68.4441 343.161 54.1725 300.025 54.4208 255.75C54.669 211.475 69.4234 168.503 96.4243 133.413C123.425 98.3234 161.184 73.0519 203.917 61.4688C246.651 49.8858 292.003 52.6299 333.028 69.2809L336.168 61.5452Z" fill="white"/>
<path d="M178.705 65.5417C182.547 80.3965 197.703 89.3244 212.558 85.4826C227.413 81.6409 236.341 66.4844 232.499 51.6296C228.657 36.7747 213.501 27.8468 198.646 31.6886C183.791 35.5303 174.863 50.6868 178.705 65.5417Z" fill="#16009D"/>
<path d="M238.827 49.9931C243.573 68.3432 232.545 87.0659 214.194 91.8116C195.843 96.5573 177.121 85.5286 172.375 67.1786C167.63 48.8285 178.659 30.1058 197.008 25.3601C215.359 20.6144 234.081 31.6429 238.827 49.9931ZM179.141 65.4288C182.921 80.0421 197.831 88.8248 212.444 85.0456C227.058 81.2663 235.84 66.3562 232.061 51.7429C228.281 37.1296 213.372 28.3468 198.758 32.1261C184.144 35.9054 175.362 50.8155 179.141 65.4288Z" fill="white"/>
<path d="M281.272 462.141C285.113 476.996 300.27 485.924 315.125 482.082C329.98 478.241 338.908 463.084 335.066 448.229C331.224 433.374 316.068 424.447 301.213 428.288C286.358 432.13 277.43 447.287 281.272 462.141Z" fill="#16009D"/>
<path d="M341.395 446.592C346.141 464.943 335.111 483.666 316.762 488.411C298.411 493.156 279.689 482.128 274.943 463.778C270.198 445.428 281.226 426.705 299.576 421.959C317.926 417.213 336.649 428.243 341.395 446.592ZM281.709 462.028C285.489 476.642 300.399 485.424 315.012 481.645C329.625 477.865 338.407 462.955 334.629 448.343C330.849 433.729 315.939 424.947 301.326 428.725C286.712 432.505 277.93 447.414 281.709 462.028Z" fill="white"/>
<path d="M336.904 66.3027C329.116 79.5232 333.521 96.5535 346.741 104.341C359.962 112.128 376.992 107.724 384.779 94.5035C392.567 81.2831 388.163 64.2528 374.942 56.4654C361.722 48.6779 344.691 53.0823 336.904 66.3027Z" fill="#16009D"/>
<path d="M390.412 97.8214C380.792 114.152 359.755 119.593 343.424 109.973C327.092 100.354 321.652 79.3162 331.271 62.9851C340.891 46.654 361.929 41.2132 378.26 50.833C394.591 60.4528 400.032 81.4902 390.412 97.8214ZM337.293 66.5321C329.632 79.5376 333.964 96.2909 346.97 103.952C359.976 111.613 376.729 107.28 384.39 94.2743C392.051 81.2689 387.718 64.5155 374.712 56.8547C361.707 49.1939 344.954 53.5265 337.293 66.5321Z" fill="white"/>
<path d="M128.991 419.267C121.204 432.487 125.608 449.517 138.829 457.305C152.049 465.092 169.079 460.688 176.867 447.468C184.654 434.247 180.25 417.217 167.03 409.429C153.809 401.642 136.779 406.046 128.991 419.267Z" fill="#16009D"/>
<path d="M182.499 450.785C172.88 467.117 151.842 472.557 135.511 462.937C119.18 453.319 113.739 432.28 123.359 415.95C132.979 399.619 154.016 394.178 170.347 403.798C186.679 413.417 192.119 434.455 182.499 450.785ZM129.381 419.497C121.72 432.502 126.053 449.255 139.059 456.917C152.064 464.577 168.817 460.244 176.478 447.239C184.139 434.233 179.806 417.48 166.801 409.819C153.795 402.158 137.041 406.491 129.381 419.497Z" fill="white"/>
<path d="M66.3025 176.867C79.523 184.654 96.5533 180.25 104.341 167.03C112.128 153.809 107.724 136.779 94.5034 128.991C81.2829 121.204 64.2526 125.608 56.4652 138.829C48.6778 152.049 53.0821 169.08 66.3025 176.867Z" fill="#16009D"/>
<path d="M97.8209 123.36C114.152 132.979 119.593 154.017 109.973 170.347C100.353 186.679 79.3158 192.119 62.9847 182.499C46.6535 172.881 41.2128 151.842 50.8326 135.512C60.4524 119.181 81.4898 113.74 97.8209 123.36ZM66.5317 176.479C79.5372 184.139 96.2905 179.806 103.951 166.801C111.613 153.795 107.28 137.042 94.2739 129.381C81.2685 121.72 64.5151 126.053 56.8542 139.059C49.1934 152.064 53.5261 168.817 66.5317 176.479Z" fill="white"/>
<path d="M419.267 384.779C432.487 392.567 449.517 388.163 457.305 374.942C465.092 361.722 460.688 344.691 447.468 336.904C434.247 329.116 417.217 333.521 409.429 346.741C401.642 359.962 406.046 376.992 419.267 384.779Z" fill="#16009D"/>
<path d="M450.785 331.271C467.117 340.891 472.557 361.929 462.937 378.26C453.317 394.591 432.28 400.032 415.949 390.412C399.618 380.792 394.177 359.755 403.797 343.423C413.417 327.092 434.454 321.652 450.785 331.271ZM419.497 384.39C432.502 392.051 449.255 387.718 456.915 374.712C464.576 361.707 460.243 344.954 447.239 337.293C434.233 329.633 417.479 333.964 409.819 346.97C402.158 359.976 406.491 376.729 419.497 384.39Z" fill="white"/>
<path d="M462.14 232.499C476.995 228.657 485.923 213.501 482.081 198.646C478.24 183.791 463.083 174.863 448.228 178.705C433.373 182.547 424.446 197.703 428.287 212.558C432.129 227.413 447.286 236.341 462.14 232.499Z" fill="#16009D"/>
<path d="M463.777 238.827C445.427 243.573 426.704 232.545 421.958 214.194C417.213 195.845 428.242 177.122 446.591 172.376C464.942 167.63 483.665 178.659 488.41 197.009C493.156 215.359 482.128 234.081 463.777 238.827ZM448.342 179.142C433.729 182.921 424.946 197.831 428.724 212.445C432.504 227.058 447.414 235.841 462.027 232.061C476.641 228.282 485.423 213.372 481.644 198.758C477.864 184.145 462.955 175.362 448.342 179.142Z" fill="white"/>
<path d="M65.5411 335.067C80.396 331.225 89.3238 316.069 85.4821 301.214C81.6404 286.359 66.4839 277.431 51.629 281.273C36.7742 285.114 27.8463 300.271 31.688 315.126C35.5298 329.981 50.6863 338.909 65.5411 335.067Z" fill="#16009D"/>
<path d="M67.1779 341.395C48.8279 346.141 30.1051 335.112 25.3594 316.762C20.6138 298.412 31.6423 279.69 49.9924 274.944C68.3425 270.198 87.0653 281.226 91.8109 299.577C96.5565 317.926 85.528 336.649 67.1779 341.395ZM51.7423 281.71C37.129 285.489 28.3462 300.399 32.1254 315.013C35.9047 329.625 50.8148 338.409 65.4281 334.629C80.0414 330.85 88.8241 315.94 85.0449 301.326C81.2656 286.713 66.3555 277.93 51.7423 281.71Z" fill="white"/>
<path d="M145.454 285.467C145.454 276.125 148.356 268.185 154.161 261.647C159.965 255.041 165.704 251.038 171.375 249.637V249.336C165.237 247.401 159.965 243.799 155.562 238.528C151.158 233.256 148.956 226.284 148.956 217.61C148.956 206.601 152.926 197.794 160.866 191.188C168.806 184.517 179.115 181.18 191.791 181.18C204.469 181.18 214.777 184.517 222.718 191.188C230.658 197.794 234.627 206.601 234.627 217.61C234.627 226.284 232.292 233.29 227.621 238.627C222.951 243.899 217.546 247.502 211.409 249.436V249.637C217.079 251.038 222.951 255.041 229.022 261.647C235.095 268.185 238.13 276.125 238.13 285.467C238.13 298.811 234.393 309.486 226.921 317.493C219.515 325.5 207.805 329.502 191.791 329.502C175.779 329.502 164.035 325.5 156.563 317.493C149.157 309.486 145.454 298.811 145.454 285.467ZM164.97 285.867C164.97 295.207 167.272 302.314 171.876 307.184C176.48 312.055 183.118 314.49 191.791 314.49C200.465 314.49 207.072 312.055 211.608 307.184C216.212 302.314 218.514 295.207 218.514 285.867C218.514 278.527 216.145 272.055 211.409 266.451C206.671 260.846 200.132 258.044 191.791 258.044C183.452 258.044 176.879 260.846 172.075 266.451C167.338 272.055 164.97 278.527 164.97 285.867ZM167.772 217.61C167.772 224.283 169.674 229.987 173.477 234.725C177.347 239.462 183.452 241.83 191.791 241.83C200.132 241.83 206.203 239.462 210.007 234.725C213.877 229.987 215.812 224.283 215.812 217.61C215.812 212.273 213.976 207.368 210.307 202.899C206.637 198.428 200.465 196.192 191.791 196.192C183.118 196.192 176.946 198.428 173.277 202.899C169.606 207.368 167.772 212.273 167.772 217.61ZM256.445 200.196C252.776 200.196 250.94 198.695 250.94 195.692V187.485C250.94 184.483 252.776 182.982 256.445 182.982H362.333C366.003 182.982 367.837 184.483 367.837 187.485V195.692C367.837 198.695 366.003 200.196 362.333 200.196H318.997V320.996C318.997 324.665 317.329 326.5 313.993 326.5H304.785C301.449 326.5 299.781 324.665 299.781 320.996V200.196H256.445Z" fill="white"/>
<path d="M351.195 167.043C367.9 167.043 381.443 180.585 381.443 197.29" stroke="white" stroke-width="4" stroke-linecap="round"/>
<path d="M351.195 151.919C376.252 151.919 396.566 172.232 396.566 197.29" stroke="white" stroke-width="4" stroke-linecap="round"/>
<path d="M351.195 137.804C384.048 137.804 410.681 164.437 410.681 197.29" stroke="white" stroke-width="4" stroke-linecap="round"/>
</svg>
