<svg width="724" height="57" viewBox="0 0 724 57" fill="none" xmlns="http://www.w3.org/2000/svg">
<rect width="724" height="57" rx="28.5" fill="#111111"/>
<path d="M305.335 18.284H292.771V41H289.351V15.224H308.755V41H305.335V18.284ZM322.177 24.764C320.785 24.764 319.597 25.184 318.613 26.024C317.629 26.864 317.005 28.136 316.741 29.84H326.785C326.833 28.976 326.749 28.232 326.533 27.608C326.317 26.96 326.005 26.432 325.597 26.024C325.189 25.592 324.685 25.28 324.085 25.088C323.509 24.872 322.873 24.764 322.177 24.764ZM329.629 39.416C329.365 39.608 329.029 39.812 328.621 40.028C328.237 40.244 327.769 40.46 327.217 40.676C326.665 40.868 326.029 41.024 325.309 41.144C324.613 41.288 323.833 41.36 322.969 41.36C319.825 41.36 317.437 40.508 315.805 38.804C314.173 37.1 313.357 34.712 313.357 31.64C313.357 30.128 313.573 28.772 314.005 27.572C314.461 26.372 315.085 25.364 315.877 24.548C316.669 23.708 317.605 23.072 318.685 22.64C319.789 22.184 320.977 21.956 322.249 21.956C323.569 21.956 324.757 22.184 325.813 22.64C326.869 23.096 327.733 23.768 328.405 24.656C329.101 25.544 329.569 26.648 329.809 27.968C330.073 29.264 330.073 30.776 329.809 32.504H316.633C316.753 34.52 317.365 36.032 318.469 37.04C319.573 38.024 321.133 38.516 323.149 38.516C324.469 38.516 325.585 38.312 326.497 37.904C327.409 37.472 328.177 37.04 328.801 36.608L329.629 39.416ZM343.164 38.516C344.82 38.516 346.152 37.952 347.16 36.824C348.192 35.672 348.708 33.944 348.708 31.64C348.708 29.384 348.192 27.68 347.16 26.528C346.152 25.352 344.82 24.764 343.164 24.764C342.348 24.764 341.58 24.908 340.86 25.196C340.164 25.484 339.552 25.916 339.024 26.492C338.52 27.044 338.112 27.752 337.8 28.616C337.512 29.48 337.368 30.488 337.368 31.64C337.368 32.792 337.512 33.8 337.8 34.664C338.112 35.528 338.52 36.248 339.024 36.824C339.552 37.4 340.164 37.832 340.86 38.12C341.58 38.384 342.348 38.516 343.164 38.516ZM343.632 41.36C342.192 41.36 340.944 41.024 339.888 40.352C338.856 39.68 338.028 38.756 337.404 37.58V47.372H334.236V22.316H337.044L337.332 25.988C337.956 24.764 338.796 23.792 339.852 23.072C340.908 22.328 342.216 21.956 343.776 21.956C344.856 21.956 345.888 22.16 346.872 22.568C347.88 22.952 348.756 23.552 349.5 24.368C350.268 25.16 350.868 26.168 351.3 27.392C351.756 28.592 351.984 30.008 351.984 31.64C351.984 33.296 351.756 34.736 351.3 35.96C350.844 37.16 350.232 38.168 349.464 38.984C348.696 39.776 347.808 40.376 346.8 40.784C345.792 41.168 344.736 41.36 343.632 41.36ZM363.767 24.764C362.375 24.764 361.187 25.184 360.203 26.024C359.219 26.864 358.595 28.136 358.331 29.84H368.375C368.423 28.976 368.339 28.232 368.123 27.608C367.907 26.96 367.595 26.432 367.187 26.024C366.779 25.592 366.275 25.28 365.675 25.088C365.099 24.872 364.463 24.764 363.767 24.764ZM371.219 39.416C370.955 39.608 370.619 39.812 370.211 40.028C369.827 40.244 369.359 40.46 368.807 40.676C368.255 40.868 367.619 41.024 366.899 41.144C366.203 41.288 365.423 41.36 364.559 41.36C361.415 41.36 359.027 40.508 357.395 38.804C355.763 37.1 354.947 34.712 354.947 31.64C354.947 30.128 355.163 28.772 355.595 27.572C356.051 26.372 356.675 25.364 357.467 24.548C358.259 23.708 359.195 23.072 360.275 22.64C361.379 22.184 362.567 21.956 363.839 21.956C365.159 21.956 366.347 22.184 367.403 22.64C368.459 23.096 369.323 23.768 369.995 24.656C370.691 25.544 371.159 26.648 371.399 27.968C371.663 29.264 371.663 30.776 371.399 32.504H358.223C358.343 34.52 358.955 36.032 360.059 37.04C361.163 38.024 362.723 38.516 364.739 38.516C366.059 38.516 367.175 38.312 368.087 37.904C368.999 37.472 369.767 37.04 370.391 36.608L371.219 39.416ZM384.07 19.832C383.11 19.832 382.27 19.712 381.55 19.472C380.854 19.208 380.266 18.86 379.786 18.428C379.33 17.972 378.982 17.456 378.742 16.88C378.526 16.28 378.418 15.632 378.418 14.936H381.586C381.586 15.848 381.802 16.508 382.234 16.916C382.69 17.324 383.302 17.528 384.07 17.528C384.838 17.528 385.438 17.324 385.87 16.916C386.302 16.508 386.518 15.848 386.518 14.936H389.686C389.686 16.304 389.218 17.468 388.282 18.428C387.37 19.364 385.966 19.832 384.07 19.832ZM375.826 22.316H378.994V36.68L388.966 22.316H392.17V41H389.002V26.672L379.066 41H375.826V22.316ZM405.072 25.016V41H401.904V25.016H396.216V22.316H410.868V25.016H405.072ZM414.884 22.316H418.052V36.68L428.024 22.316H431.228V41H428.06V26.672L418.124 41H414.884V22.316Z" fill="white"/>
</svg>
