<svg width="1679" height="797" viewBox="0 0 1679 797" fill="none" xmlns="http://www.w3.org/2000/svg">
<path fill-rule="evenodd" clip-rule="evenodd" d="M60 0C26.8629 0 0 26.8629 0 60V898H121V168.447C121 146.355 138.909 128.447 161 128.447H1517C1539.09 128.447 1557 146.355 1557 168.447V898H1679V60C1679 26.8629 1652.14 0 1619 0H60Z" fill="#830000"/>
<path d="M593.214 86.66C590.002 86.66 587.054 86.132 584.37 85.076C581.686 83.976 579.354 82.436 577.374 80.456C575.438 78.432 573.92 75.99 572.82 73.13C571.72 70.226 571.17 66.948 571.17 63.296C571.17 59.556 571.742 56.212 572.886 53.264C574.074 50.316 575.702 47.83 577.77 45.806C579.838 43.782 582.28 42.242 585.096 41.186C587.912 40.086 590.948 39.536 594.204 39.536C597.064 39.536 599.506 39.822 601.53 40.394C603.598 40.966 605.49 41.692 607.206 42.572L605.49 47.918C603.818 46.774 602.014 45.85 600.078 45.146C598.142 44.442 595.898 44.09 593.346 44.09C591.19 44.09 589.166 44.53 587.274 45.41C585.382 46.246 583.71 47.478 582.258 49.106C580.85 50.734 579.728 52.736 578.892 55.112C578.056 57.488 577.638 60.216 577.638 63.296C577.638 66.288 578.012 68.95 578.76 71.282C579.552 73.614 580.63 75.594 581.994 77.222C583.402 78.806 585.074 80.016 587.01 80.852C588.99 81.688 591.168 82.106 593.544 82.106C595.656 82.106 597.636 81.798 599.484 81.182C601.376 80.522 603.18 79.664 604.896 78.608L606.546 82.634C605.314 83.646 603.554 84.57 601.266 85.406C598.978 86.242 596.294 86.66 593.214 86.66ZM629.203 82.634C632.151 82.634 634.527 81.6 636.331 79.532C638.179 77.42 639.103 74.032 639.103 69.368C639.103 64.792 638.179 61.448 636.331 59.336C634.527 57.18 632.151 56.102 629.203 56.102C627.751 56.102 626.365 56.366 625.045 56.894C623.725 57.378 622.559 58.17 621.547 59.27C620.579 60.326 619.809 61.69 619.237 63.362C618.665 65.034 618.379 67.036 618.379 69.368C618.379 71.744 618.665 73.768 619.237 75.44C619.809 77.112 620.579 78.476 621.547 79.532C622.559 80.588 623.725 81.38 625.045 81.908C626.365 82.392 627.751 82.634 629.203 82.634ZM630.061 86.66C627.597 86.66 625.419 86.132 623.527 85.076C621.679 83.976 620.161 82.48 618.973 80.588V98.342H613.363V52.802H618.313L618.709 58.676C619.897 56.696 621.437 55.112 623.329 53.924C625.265 52.736 627.597 52.142 630.325 52.142C632.261 52.142 634.109 52.494 635.869 53.198C637.629 53.902 639.169 54.958 640.489 56.366C641.853 57.774 642.931 59.578 643.723 61.778C644.515 63.934 644.911 66.464 644.911 69.368C644.911 72.272 644.493 74.824 643.657 77.024C642.865 79.18 641.787 80.984 640.423 82.436C639.059 83.844 637.475 84.9 635.671 85.604C633.911 86.308 632.041 86.66 630.061 86.66ZM666.284 86.66C664.128 86.66 662.082 86.286 660.146 85.538C658.21 84.746 656.516 83.624 655.064 82.172C653.612 80.676 652.446 78.872 651.566 76.76C650.73 74.604 650.312 72.14 650.312 69.368C650.312 66.596 650.73 64.154 651.566 62.042C652.446 59.886 653.612 58.082 655.064 56.63C656.516 55.178 658.21 54.078 660.146 53.33C662.082 52.538 664.128 52.142 666.284 52.142C668.44 52.142 670.486 52.538 672.422 53.33C674.402 54.078 676.118 55.178 677.57 56.63C679.066 58.082 680.254 59.886 681.134 62.042C682.014 64.154 682.454 66.596 682.454 69.368C682.454 72.14 682.014 74.604 681.134 76.76C680.254 78.872 679.066 80.676 677.57 82.172C676.118 83.624 674.402 84.746 672.422 85.538C670.486 86.286 668.44 86.66 666.284 86.66ZM666.284 82.502C667.604 82.502 668.88 82.282 670.112 81.842C671.388 81.358 672.51 80.588 673.478 79.532C674.446 78.476 675.216 77.112 675.788 75.44C676.404 73.768 676.712 71.744 676.712 69.368C676.712 66.992 676.404 64.99 675.788 63.362C675.216 61.69 674.446 60.326 673.478 59.27C672.51 58.214 671.388 57.466 670.112 57.026C668.88 56.542 667.604 56.3 666.284 56.3C664.964 56.3 663.688 56.542 662.456 57.026C661.268 57.466 660.19 58.214 659.222 59.27C658.254 60.326 657.484 61.69 656.912 63.362C656.34 64.99 656.054 66.992 656.054 69.368C656.054 71.744 656.34 73.768 656.912 75.44C657.484 77.112 658.254 78.476 659.222 79.532C660.19 80.588 661.268 81.358 662.456 81.842C663.688 82.282 664.964 82.502 666.284 82.502ZM708.966 86V71.348C708.614 71.612 708.13 71.942 707.514 72.338C706.942 72.69 706.26 73.02 705.468 73.328C704.72 73.636 703.862 73.9 702.894 74.12C701.926 74.34 700.87 74.45 699.726 74.45C692.07 74.45 688.242 70.49 688.242 62.57V52.802H693.918V62.57C693.918 65.298 694.512 67.19 695.7 68.246C696.932 69.258 698.714 69.764 701.046 69.764C702.058 69.764 703.004 69.654 703.884 69.434C704.764 69.17 705.556 68.884 706.26 68.576C706.964 68.268 707.536 67.982 707.976 67.718C708.46 67.41 708.79 67.19 708.966 67.058V52.802H714.642V86H708.966ZM745.743 70.82H729.639V86H724.029V52.802H729.639V66.86H745.743V52.802H751.353V86H745.743V70.82ZM795.683 86H790.073V52.802H795.683V86ZM766.313 67.388V82.04H771.395C773.815 82.04 775.773 81.424 777.269 80.192C778.809 78.96 779.579 77.09 779.579 74.582C779.579 72.03 778.897 70.204 777.533 69.104C776.169 67.96 774.255 67.388 771.791 67.388H766.313ZM760.703 52.802H766.313V63.428H771.791C776.059 63.428 779.359 64.308 781.691 66.068C784.067 67.784 785.255 70.512 785.255 74.252C785.255 76.188 784.903 77.904 784.199 79.4C783.539 80.852 782.593 82.084 781.361 83.096C780.129 84.064 778.655 84.79 776.939 85.274C775.267 85.758 773.419 86 771.395 86H760.703V52.802ZM818.312 56.168C815.936 56.168 813.89 57.004 812.174 58.676C810.502 60.348 809.446 62.878 809.006 66.266H825.836C826.1 62.834 825.506 60.304 824.054 58.676C822.646 57.004 820.732 56.168 818.312 56.168ZM830.522 83.162C829.334 84.174 827.794 85.01 825.902 85.67C824.01 86.33 821.854 86.66 819.434 86.66C814.154 86.66 810.106 85.164 807.29 82.172C804.474 79.136 803.066 74.868 803.066 69.368C803.066 66.684 803.462 64.286 804.254 62.174C805.046 60.018 806.124 58.192 807.488 56.696C808.896 55.2 810.524 54.078 812.372 53.33C814.264 52.538 816.288 52.142 818.444 52.142C820.688 52.142 822.69 52.538 824.45 53.33C826.254 54.078 827.728 55.222 828.872 56.762C830.06 58.258 830.852 60.15 831.248 62.438C831.688 64.682 831.688 67.278 831.248 70.226H808.808C809.072 78.19 812.79 82.172 819.962 82.172C821.854 82.172 823.548 81.886 825.044 81.314C826.54 80.742 827.926 80.016 829.202 79.136L830.522 83.162ZM874.907 70.82H858.803V86H853.193V52.802H858.803V66.86H874.907V52.802H880.517V86H874.907V70.82ZM903.859 86.66C901.703 86.66 899.657 86.286 897.721 85.538C895.785 84.746 894.091 83.624 892.639 82.172C891.187 80.676 890.021 78.872 889.141 76.76C888.305 74.604 887.887 72.14 887.887 69.368C887.887 66.596 888.305 64.154 889.141 62.042C890.021 59.886 891.187 58.082 892.639 56.63C894.091 55.178 895.785 54.078 897.721 53.33C899.657 52.538 901.703 52.142 903.859 52.142C906.015 52.142 908.061 52.538 909.997 53.33C911.977 54.078 913.693 55.178 915.145 56.63C916.641 58.082 917.829 59.886 918.709 62.042C919.589 64.154 920.029 66.596 920.029 69.368C920.029 72.14 919.589 74.604 918.709 76.76C917.829 78.872 916.641 80.676 915.145 82.172C913.693 83.624 911.977 84.746 909.997 85.538C908.061 86.286 906.015 86.66 903.859 86.66ZM903.859 82.502C905.179 82.502 906.455 82.282 907.687 81.842C908.963 81.358 910.085 80.588 911.053 79.532C912.021 78.476 912.791 77.112 913.363 75.44C913.979 73.768 914.287 71.744 914.287 69.368C914.287 66.992 913.979 64.99 913.363 63.362C912.791 61.69 912.021 60.326 911.053 59.27C910.085 58.214 908.963 57.466 907.687 57.026C906.455 56.542 905.179 56.3 903.859 56.3C902.539 56.3 901.263 56.542 900.031 57.026C898.843 57.466 897.765 58.214 896.797 59.27C895.829 60.326 895.059 61.69 894.487 63.362C893.915 64.99 893.629 66.992 893.629 69.368C893.629 71.744 893.915 73.768 894.487 75.44C895.059 77.112 895.829 78.476 896.797 79.532C897.765 80.588 898.843 81.358 900.031 81.842C901.263 82.282 902.539 82.502 903.859 82.502ZM933.053 56.762V66.596H938.597C941.105 66.596 942.909 66.134 944.009 65.21C945.153 64.242 945.725 62.988 945.725 61.448C945.725 59.6 945.131 58.368 943.943 57.752C942.799 57.092 941.171 56.762 939.059 56.762H933.053ZM933.053 70.556V82.04H938.993C941.369 82.04 943.283 81.622 944.735 80.786C946.187 79.906 946.913 78.366 946.913 76.166C946.913 72.426 944.273 70.556 938.993 70.556H933.053ZM927.443 52.802H939.125C943.129 52.802 946.143 53.462 948.167 54.782C950.235 56.058 951.269 58.126 951.269 60.986C951.269 64.682 949.201 67.058 945.065 68.114C947.661 68.554 949.575 69.478 950.807 70.886C952.083 72.25 952.721 74.054 952.721 76.298C952.721 78.014 952.369 79.488 951.665 80.72C951.005 81.952 950.059 82.964 948.827 83.756C947.639 84.504 946.209 85.076 944.537 85.472C942.865 85.824 941.039 86 939.059 86H927.443V52.802ZM974.241 86.66C972.085 86.66 970.039 86.286 968.103 85.538C966.167 84.746 964.473 83.624 963.021 82.172C961.569 80.676 960.403 78.872 959.523 76.76C958.687 74.604 958.269 72.14 958.269 69.368C958.269 66.596 958.687 64.154 959.523 62.042C960.403 59.886 961.569 58.082 963.021 56.63C964.473 55.178 966.167 54.078 968.103 53.33C970.039 52.538 972.085 52.142 974.241 52.142C976.397 52.142 978.443 52.538 980.379 53.33C982.359 54.078 984.075 55.178 985.527 56.63C987.023 58.082 988.211 59.886 989.091 62.042C989.971 64.154 990.411 66.596 990.411 69.368C990.411 72.14 989.971 74.604 989.091 76.76C988.211 78.872 987.023 80.676 985.527 82.172C984.075 83.624 982.359 84.746 980.379 85.538C978.443 86.286 976.397 86.66 974.241 86.66ZM974.241 82.502C975.561 82.502 976.837 82.282 978.069 81.842C979.345 81.358 980.467 80.588 981.435 79.532C982.403 78.476 983.173 77.112 983.745 75.44C984.361 73.768 984.669 71.744 984.669 69.368C984.669 66.992 984.361 64.99 983.745 63.362C983.173 61.69 982.403 60.326 981.435 59.27C980.467 58.214 979.345 57.466 978.069 57.026C976.837 56.542 975.561 56.3 974.241 56.3C972.921 56.3 971.645 56.542 970.413 57.026C969.225 57.466 968.147 58.214 967.179 59.27C966.211 60.326 965.441 61.69 964.869 63.362C964.297 64.99 964.011 66.992 964.011 69.368C964.011 71.744 964.297 73.768 964.869 75.44C965.441 77.112 966.211 78.476 967.179 79.532C968.147 80.588 969.225 81.358 970.413 81.842C971.645 82.282 972.921 82.502 974.241 82.502ZM1012.28 86.66C1009.99 86.66 1007.84 86.286 1005.81 85.538C1003.83 84.746 1002.09 83.602 1000.6 82.106C999.146 80.61 997.98 78.806 997.1 76.694C996.264 74.538 995.846 72.096 995.846 69.368C995.846 66.684 996.264 64.286 997.1 62.174C997.98 60.018 999.168 58.192 1000.66 56.696C1002.2 55.2 1004.01 54.078 1006.08 53.33C1008.14 52.538 1010.37 52.142 1012.74 52.142C1014.72 52.142 1016.5 52.34 1018.09 52.736C1019.67 53.132 1020.99 53.682 1022.05 54.386L1020.4 59.402C1019.12 58.478 1017.87 57.774 1016.64 57.29C1015.45 56.762 1014.02 56.498 1012.35 56.498C1010.89 56.498 1009.51 56.784 1008.19 57.356C1006.87 57.884 1005.72 58.698 1004.76 59.798C1003.79 60.854 1003.02 62.196 1002.45 63.824C1001.87 65.408 1001.59 67.256 1001.59 69.368C1001.59 73.68 1002.62 76.892 1004.69 79.004C1006.76 81.116 1009.57 82.172 1013.14 82.172C1014.33 82.172 1015.6 81.952 1016.97 81.512C1018.37 81.072 1019.65 80.434 1020.79 79.598L1022.05 83.756C1020.9 84.636 1019.5 85.34 1017.82 85.868C1016.2 86.396 1014.35 86.66 1012.28 86.66ZM1042.22 56.762V86H1036.54V56.762H1026.44V52.802H1052.51V56.762H1042.22ZM1059.19 52.802H1064.8V78.476L1083.08 52.802H1088.23V86H1082.62V60.26L1064.4 86H1059.19V52.802ZM1104.27 40.13L1103.28 73.79H1099.51L1098.59 40.13H1104.27ZM1101.36 86.396C1100.26 86.396 1099.36 86.044 1098.66 85.34C1097.95 84.592 1097.6 83.712 1097.6 82.7C1097.6 81.644 1097.95 80.764 1098.66 80.06C1099.36 79.312 1100.26 78.938 1101.36 78.938C1102.46 78.938 1103.36 79.312 1104.07 80.06C1104.77 80.764 1105.12 81.644 1105.12 82.7C1105.12 83.712 1104.77 84.592 1104.07 85.34C1103.36 86.044 1102.46 86.396 1101.36 86.396Z" fill="white"/>
</svg>
