<svg width="1229" height="130" viewBox="0 0 1229 130" fill="none" xmlns="http://www.w3.org/2000/svg">
<rect width="1229" height="130" rx="65" fill="#0F0F0F"/>
<path d="M515.349 51.904H499.077V82H494.661V48.64H519.765V82H515.349V51.904ZM537.217 82.48C535.649 82.48 534.161 82.208 532.753 81.664C531.345 81.088 530.113 80.272 529.057 79.216C528.001 78.128 527.153 76.816 526.513 75.28C525.905 73.712 525.601 71.92 525.601 69.904C525.601 67.888 525.905 66.112 526.513 64.576C527.153 63.008 528.001 61.696 529.057 60.64C530.113 59.584 531.345 58.784 532.753 58.24C534.161 57.664 535.649 57.376 537.217 57.376C538.785 57.376 540.273 57.664 541.681 58.24C543.121 58.784 544.369 59.584 545.425 60.64C546.513 61.696 547.377 63.008 548.017 64.576C548.657 66.112 548.977 67.888 548.977 69.904C548.977 71.92 548.657 73.712 548.017 75.28C547.377 76.816 546.513 78.128 545.425 79.216C544.369 80.272 543.121 81.088 541.681 81.664C540.273 82.208 538.785 82.48 537.217 82.48ZM537.217 79.456C538.177 79.456 539.105 79.296 540.001 78.976C540.929 78.624 541.745 78.064 542.449 77.296C543.153 76.528 543.713 75.536 544.129 74.32C544.577 73.104 544.801 71.632 544.801 69.904C544.801 68.176 544.577 66.72 544.129 65.536C543.713 64.32 543.153 63.328 542.449 62.56C541.745 61.792 540.929 61.248 540.001 60.928C539.105 60.576 538.177 60.4 537.217 60.4C536.257 60.4 535.329 60.576 534.433 60.928C533.569 61.248 532.785 61.792 532.081 62.56C531.377 63.328 530.817 64.32 530.401 65.536C529.985 66.72 529.777 68.176 529.777 69.904C529.777 71.632 529.985 73.104 530.401 74.32C530.817 75.536 531.377 76.528 532.081 77.296C532.785 78.064 533.569 78.624 534.433 78.976C535.329 79.296 536.257 79.456 537.217 79.456ZM558.167 77.344C557.911 77.92 557.575 78.464 557.159 78.976H569.447V60.736H560.471C560.311 64.896 560.071 68.32 559.751 71.008C559.431 73.664 558.903 75.776 558.167 77.344ZM573.191 82H554.999L554.135 89.632H551.015V78.976H552.743C553.895 78.272 554.759 76.992 555.335 75.136C555.911 73.312 556.295 70.976 556.487 68.128C556.679 65.248 556.823 61.824 556.919 57.856H573.527V78.976H577.175V89.632H574.055L573.191 82ZM594.014 79.552C596.158 79.552 597.886 78.8 599.198 77.296C600.542 75.76 601.214 73.296 601.214 69.904C601.214 66.576 600.542 64.144 599.198 62.608C597.886 61.04 596.158 60.256 594.014 60.256C592.958 60.256 591.95 60.448 590.99 60.832C590.03 61.184 589.182 61.76 588.446 62.56C587.742 63.328 587.182 64.32 586.766 65.536C586.35 66.752 586.142 68.208 586.142 69.904C586.142 71.632 586.35 73.104 586.766 74.32C587.182 75.536 587.742 76.528 588.446 77.296C589.182 78.064 590.03 78.64 590.99 79.024C591.95 79.376 592.958 79.552 594.014 79.552ZM594.638 82.48C592.846 82.48 591.262 82.096 589.886 81.328C588.542 80.528 587.438 79.44 586.574 78.064V90.976H582.494V57.856H586.094L586.382 62.128C587.246 60.688 588.366 59.536 589.742 58.672C591.15 57.808 592.846 57.376 594.83 57.376C596.238 57.376 597.582 57.632 598.862 58.144C600.142 58.656 601.262 59.424 602.222 60.448C603.214 61.472 603.998 62.784 604.574 64.384C605.15 65.952 605.438 67.792 605.438 69.904C605.438 72.016 605.134 73.872 604.526 75.472C603.95 77.04 603.166 78.352 602.174 79.408C601.182 80.432 600.03 81.2 598.718 81.712C597.438 82.224 596.078 82.48 594.638 82.48ZM620.982 82.48C619.414 82.48 617.926 82.208 616.518 81.664C615.11 81.088 613.878 80.272 612.822 79.216C611.766 78.128 610.918 76.816 610.278 75.28C609.67 73.712 609.366 71.92 609.366 69.904C609.366 67.888 609.67 66.112 610.278 64.576C610.918 63.008 611.766 61.696 612.822 60.64C613.878 59.584 615.11 58.784 616.518 58.24C617.926 57.664 619.414 57.376 620.982 57.376C622.55 57.376 624.038 57.664 625.446 58.24C626.886 58.784 628.134 59.584 629.19 60.64C630.278 61.696 631.142 63.008 631.782 64.576C632.422 66.112 632.742 67.888 632.742 69.904C632.742 71.92 632.422 73.712 631.782 75.28C631.142 76.816 630.278 78.128 629.19 79.216C628.134 80.272 626.886 81.088 625.446 81.664C624.038 82.208 622.55 82.48 620.982 82.48ZM620.982 79.456C621.942 79.456 622.87 79.296 623.766 78.976C624.694 78.624 625.51 78.064 626.214 77.296C626.918 76.528 627.478 75.536 627.894 74.32C628.342 73.104 628.566 71.632 628.566 69.904C628.566 68.176 628.342 66.72 627.894 65.536C627.478 64.32 626.918 63.328 626.214 62.56C625.51 61.792 624.694 61.248 623.766 60.928C622.87 60.576 621.942 60.4 620.982 60.4C620.022 60.4 619.094 60.576 618.198 60.928C617.334 61.248 616.55 61.792 615.846 62.56C615.142 63.328 614.582 64.32 614.166 65.536C613.75 66.72 613.542 68.176 613.542 69.904C613.542 71.632 613.75 73.104 614.166 74.32C614.582 75.536 615.142 76.528 615.846 77.296C616.55 78.064 617.334 78.624 618.198 78.976C619.094 79.296 620.022 79.456 620.982 79.456ZM648.647 82.48C646.951 82.48 645.383 82.192 643.943 81.616C642.503 81.04 641.271 80.16 640.247 78.976C639.223 77.792 638.423 76.304 637.847 74.512C637.271 72.72 636.983 70.592 636.983 68.128C636.983 66.112 637.047 64.16 637.175 62.272C637.303 60.384 637.575 58.64 637.991 57.04C638.439 55.408 639.079 53.952 639.911 52.672C640.743 51.36 641.863 50.272 643.271 49.408C644.839 48.512 646.487 47.984 648.215 47.824C649.943 47.664 651.655 47.552 653.351 47.488C654.631 47.392 655.703 47.216 656.567 46.96C657.463 46.704 658.103 46.368 658.487 45.952L658.871 49.312C658.519 49.856 657.911 50.24 657.047 50.464C656.215 50.688 655.127 50.864 653.783 50.992C651.991 51.152 650.359 51.264 648.887 51.328C647.447 51.392 646.119 51.744 644.903 52.384C644.071 52.832 643.383 53.424 642.839 54.16C642.295 54.896 641.847 55.728 641.495 56.656C641.143 57.584 640.871 58.624 640.679 59.776C640.519 60.896 640.391 62.096 640.295 63.376C641.063 61.424 642.199 59.936 643.703 58.912C645.207 57.888 647.063 57.376 649.271 57.376C650.903 57.376 652.391 57.664 653.735 58.24C655.111 58.784 656.279 59.6 657.239 60.688C658.231 61.744 658.999 63.056 659.543 64.624C660.119 66.16 660.407 67.92 660.407 69.904C660.407 71.92 660.103 73.712 659.495 75.28C658.919 76.816 658.103 78.128 657.047 79.216C655.991 80.272 654.743 81.088 653.303 81.664C651.863 82.208 650.311 82.48 648.647 82.48ZM648.647 79.552C649.735 79.552 650.727 79.36 651.623 78.976C652.551 78.592 653.351 78 654.023 77.2C654.695 76.4 655.223 75.392 655.607 74.176C655.991 72.96 656.183 71.536 656.183 69.904C656.183 68.272 655.991 66.848 655.607 65.632C655.255 64.416 654.743 63.424 654.071 62.656C653.399 61.856 652.615 61.264 651.719 60.88C650.823 60.496 649.847 60.304 648.791 60.304C647.735 60.304 646.743 60.496 645.815 60.88C644.887 61.264 644.087 61.856 643.415 62.656C642.743 63.424 642.199 64.4 641.783 65.584C641.399 66.768 641.207 68.16 641.207 69.76C641.207 71.456 641.383 72.912 641.735 74.128C642.119 75.344 642.631 76.368 643.271 77.2C643.943 78 644.727 78.592 645.623 78.976C646.551 79.36 647.559 79.552 648.647 79.552ZM681.442 70.96H669.73V82H665.65V57.856H669.73V68.08H681.442V57.856H685.522V82H681.442V70.96ZM701.97 60.304C700.242 60.304 698.754 60.912 697.506 62.128C696.29 63.344 695.522 65.184 695.202 67.648H707.442C707.634 65.152 707.202 63.312 706.146 62.128C705.122 60.912 703.73 60.304 701.97 60.304ZM710.85 79.936C709.986 80.672 708.866 81.28 707.49 81.76C706.114 82.24 704.546 82.48 702.786 82.48C698.946 82.48 696.002 81.392 693.954 79.216C691.906 77.008 690.882 73.904 690.882 69.904C690.882 67.952 691.17 66.208 691.746 64.672C692.322 63.104 693.106 61.776 694.098 60.688C695.122 59.6 696.306 58.784 697.65 58.24C699.026 57.664 700.498 57.376 702.066 57.376C703.698 57.376 705.154 57.664 706.434 58.24C707.746 58.784 708.818 59.616 709.65 60.736C710.514 61.824 711.09 63.2 711.378 64.864C711.698 66.496 711.698 68.384 711.378 70.528H695.058C695.25 76.32 697.954 79.216 703.17 79.216C704.546 79.216 705.778 79.008 706.866 78.592C707.954 78.176 708.962 77.648 709.89 77.008L710.85 79.936ZM726.626 60.304C724.898 60.304 723.41 60.912 722.162 62.128C720.946 63.344 720.178 65.184 719.858 67.648H732.098C732.29 65.152 731.858 63.312 730.802 62.128C729.778 60.912 728.386 60.304 726.626 60.304ZM735.506 79.936C734.642 80.672 733.522 81.28 732.146 81.76C730.77 82.24 729.202 82.48 727.442 82.48C723.602 82.48 720.658 81.392 718.61 79.216C716.562 77.008 715.538 73.904 715.538 69.904C715.538 67.952 715.826 66.208 716.402 64.672C716.978 63.104 717.762 61.776 718.754 60.688C719.778 59.6 720.962 58.784 722.306 58.24C723.682 57.664 725.154 57.376 726.722 57.376C728.354 57.376 729.81 57.664 731.09 58.24C732.402 58.784 733.474 59.616 734.306 60.736C735.17 61.824 735.746 63.2 736.034 64.864C736.354 66.496 736.354 68.384 736.034 70.528H719.714C719.906 76.32 722.61 79.216 727.826 79.216C729.202 79.216 730.434 79.008 731.522 78.592C732.61 78.176 733.618 77.648 734.546 77.008L735.506 79.936Z" fill="white"/>
</svg>
