<svg width="494" height="57" viewBox="0 0 494 57" fill="none" xmlns="http://www.w3.org/2000/svg">
<rect width="494" height="57" rx="28.5" fill="#111111"/>
<path d="M191.254 18.284H178.69V41H175.27V15.224H194.674V41H191.254V18.284ZM208.096 24.764C206.704 24.764 205.516 25.184 204.532 26.024C203.548 26.864 202.924 28.136 202.66 29.84H212.704C212.752 28.976 212.668 28.232 212.452 27.608C212.236 26.96 211.924 26.432 211.516 26.024C211.108 25.592 210.604 25.28 210.004 25.088C209.428 24.872 208.792 24.764 208.096 24.764ZM215.548 39.416C215.284 39.608 214.948 39.812 214.54 40.028C214.156 40.244 213.688 40.46 213.136 40.676C212.584 40.868 211.948 41.024 211.228 41.144C210.532 41.288 209.752 41.36 208.888 41.36C205.744 41.36 203.356 40.508 201.724 38.804C200.092 37.1 199.276 34.712 199.276 31.64C199.276 30.128 199.492 28.772 199.924 27.572C200.38 26.372 201.004 25.364 201.796 24.548C202.588 23.708 203.524 23.072 204.604 22.64C205.708 22.184 206.896 21.956 208.168 21.956C209.488 21.956 210.676 22.184 211.732 22.64C212.788 23.096 213.652 23.768 214.324 24.656C215.02 25.544 215.488 26.648 215.728 27.968C215.992 29.264 215.992 30.776 215.728 32.504H202.552C202.672 34.52 203.284 36.032 204.388 37.04C205.492 38.024 207.052 38.516 209.068 38.516C210.388 38.516 211.504 38.312 212.416 37.904C213.328 37.472 214.096 37.04 214.72 36.608L215.548 39.416ZM229.083 38.516C230.739 38.516 232.071 37.952 233.079 36.824C234.111 35.672 234.627 33.944 234.627 31.64C234.627 29.384 234.111 27.68 233.079 26.528C232.071 25.352 230.739 24.764 229.083 24.764C228.267 24.764 227.499 24.908 226.779 25.196C226.083 25.484 225.471 25.916 224.943 26.492C224.439 27.044 224.031 27.752 223.719 28.616C223.431 29.48 223.287 30.488 223.287 31.64C223.287 32.792 223.431 33.8 223.719 34.664C224.031 35.528 224.439 36.248 224.943 36.824C225.471 37.4 226.083 37.832 226.779 38.12C227.499 38.384 228.267 38.516 229.083 38.516ZM229.551 41.36C228.111 41.36 226.863 41.024 225.807 40.352C224.775 39.68 223.947 38.756 223.323 37.58V47.372H220.155V22.316H222.963L223.251 25.988C223.875 24.764 224.715 23.792 225.771 23.072C226.827 22.328 228.135 21.956 229.695 21.956C230.775 21.956 231.807 22.16 232.791 22.568C233.799 22.952 234.675 23.552 235.419 24.368C236.187 25.16 236.787 26.168 237.219 27.392C237.675 28.592 237.903 30.008 237.903 31.64C237.903 33.296 237.675 34.736 237.219 35.96C236.763 37.16 236.151 38.168 235.383 38.984C234.615 39.776 233.727 40.376 232.719 40.784C231.711 41.168 230.655 41.36 229.551 41.36ZM249.686 24.764C248.294 24.764 247.106 25.184 246.122 26.024C245.138 26.864 244.514 28.136 244.25 29.84H254.294C254.342 28.976 254.258 28.232 254.042 27.608C253.826 26.96 253.514 26.432 253.106 26.024C252.698 25.592 252.194 25.28 251.594 25.088C251.018 24.872 250.382 24.764 249.686 24.764ZM257.138 39.416C256.874 39.608 256.538 39.812 256.13 40.028C255.746 40.244 255.278 40.46 254.726 40.676C254.174 40.868 253.538 41.024 252.818 41.144C252.122 41.288 251.342 41.36 250.478 41.36C247.334 41.36 244.946 40.508 243.314 38.804C241.682 37.1 240.866 34.712 240.866 31.64C240.866 30.128 241.082 28.772 241.514 27.572C241.97 26.372 242.594 25.364 243.386 24.548C244.178 23.708 245.114 23.072 246.194 22.64C247.298 22.184 248.486 21.956 249.758 21.956C251.078 21.956 252.266 22.184 253.322 22.64C254.378 23.096 255.242 23.768 255.914 24.656C256.61 25.544 257.078 26.648 257.318 27.968C257.582 29.264 257.582 30.776 257.318 32.504H244.142C244.262 34.52 244.874 36.032 245.978 37.04C247.082 38.024 248.642 38.516 250.658 38.516C251.978 38.516 253.094 38.312 254.006 37.904C254.918 37.472 255.686 37.04 256.31 36.608L257.138 39.416ZM269.989 19.832C269.029 19.832 268.189 19.712 267.469 19.472C266.773 19.208 266.185 18.86 265.705 18.428C265.249 17.972 264.901 17.456 264.661 16.88C264.445 16.28 264.337 15.632 264.337 14.936H267.505C267.505 15.848 267.721 16.508 268.153 16.916C268.609 17.324 269.221 17.528 269.989 17.528C270.757 17.528 271.357 17.324 271.789 16.916C272.221 16.508 272.437 15.848 272.437 14.936H275.605C275.605 16.304 275.137 17.468 274.201 18.428C273.289 19.364 271.885 19.832 269.989 19.832ZM261.745 22.316H264.913V36.68L274.885 22.316H278.089V41H274.921V26.672L264.985 41H261.745V22.316ZM290.991 25.016V41H287.823V25.016H282.135V22.316H296.787V25.016H290.991ZM300.803 22.316H303.971V36.68L313.943 22.316H317.147V41H313.979V26.672L304.043 41H300.803V22.316Z" fill="white"/>
</svg>
