<svg width="37" height="40" viewBox="0 0 37 40" fill="none" xmlns="http://www.w3.org/2000/svg">
<g id="&#208;&#187;&#209;&#131;&#208;&#189;&#208;&#176;">
<path id="Ellipse 1" d="M31.3753 31.5593C32.4307 31.6556 33.0858 32.5314 32.4365 33.3689C31.657 34.3741 30.1444 35.7933 27.2088 37.5155C24.7606 38.9518 22.0082 39.7912 19.1747 39.9658C16.3411 40.1404 13.5063 39.6451 10.9002 38.5203C8.294 37.3955 5.98989 35.6727 4.17471 33.4917C2.35953 31.3108 1.08441 28.733 0.452767 25.9675C-0.178874 23.2021 -0.149245 20.3268 0.53925 17.5749C1.22774 14.823 2.55572 12.2721 4.41545 10.1289C6.36651 7.88049 7.96704 6.66607 9.12681 6.01014C10.1755 5.41704 11.1043 6.30125 11.0039 7.50182C10.0443 18.9769 13.595 24.1503 14.0765 24.7937C14.1116 24.8407 14.146 24.8865 14.1816 24.9331C14.6721 25.5735 18.766 30.4085 31.3753 31.5593Z" fill="white"/>
<path id="Star 1" d="M22.0465 3.8205C22.3016 2.81505 23.73 2.81505 23.9851 3.8205L24.1655 4.53177C24.2558 4.88745 24.5336 5.16514 24.8893 5.25524L25.598 5.43476C26.604 5.68955 26.604 7.11874 25.598 7.37353L24.8893 7.55304C24.5336 7.64314 24.2558 7.92083 24.1655 8.27652L23.9851 8.98779C23.73 9.99323 22.3016 9.99323 22.0465 8.98779L21.866 8.27652C21.7758 7.92083 21.498 7.64314 21.1423 7.55304L20.4335 7.37353C19.4276 7.11874 19.4276 5.68955 20.4335 5.43476L21.1423 5.25524C21.498 5.16514 21.7758 4.88745 21.866 4.53177L22.0465 3.8205Z" fill="white"/>
<path id="Star 2" d="M27.2906 13.1356C27.5457 12.1302 28.9741 12.1302 29.2291 13.1356L29.4096 13.8469C29.4998 14.2026 29.7776 14.4803 30.1334 14.5704L30.8421 14.7499C31.848 15.0047 31.848 16.4339 30.8421 16.6887L30.1334 16.8682C29.7776 16.9583 29.4998 17.236 29.4096 17.5916L29.2291 18.3029C28.9741 19.3084 27.5457 19.3084 27.2906 18.3029L27.1101 17.5916C27.0199 17.236 26.7421 16.9583 26.3863 16.8682L25.6776 16.6887C24.6717 16.4339 24.6717 15.0047 25.6776 14.7499L26.3863 14.5704C26.7421 14.4803 27.0199 14.2026 27.1101 13.8469L27.2906 13.1356Z" fill="white"/>
<path id="Star 3" d="M32.3759 7.09028C32.5577 6.37351 33.5761 6.37351 33.758 7.09028C33.8223 7.34366 34.0202 7.54152 34.2736 7.6057C34.9902 7.78721 34.9902 8.80533 34.2736 8.98684C34.0202 9.05102 33.8223 9.24888 33.758 9.50226C33.5761 10.219 32.5577 10.219 32.3759 9.50226C32.3116 9.24888 32.1137 9.05102 31.8603 8.98684C31.1436 8.80533 31.1436 7.78721 31.8603 7.6057C32.1137 7.54152 32.3116 7.34366 32.3759 7.09028Z" fill="white"/>
</g>
</svg>
